<?xml version="1.0" encoding="UTF-8"?>
<svg xmlns="http://www.w3.org/2000/svg" viewBox="0 0 155 125">
  <g fill="#E0E0E0">
    <path d="m.04.01h52.34c31.04,38.33,36.54,45.13,98.9,122.13-7.72-.03-38.17.03-52.28-.01C49.48,61.02,65.33,80.59.04.01Z"/>
    <path d="m98.89.01C106.5-.01,103.15.01,151.19.01c-21.7,26.69-22.26,27.41-45.31,55.88-11.89-14.9-12.03-14.78-26.19-32.26C91.2,9.59,86.44,15.34,98.89.01Z"/>
    <path d="m45.37,66.09c10.48,13.28,14.04,17.1,26.32,32.42-7,8.32-8.34,9.98-19.38,23.61H0c21.52-26.28,19.48-24.05,45.37-56.03Z"/>
  </g>
</svg>
