<?xml version="1.0" encoding="UTF-8" standalone="no"?>
<svg
   viewBox="0 0 160 200"
   version="1.1"
   id="svg1682"
   sodipodi:docname="logo_vertical.svg"
   inkscape:version="1.2.2 (b0a8486541, 2022-12-01)"
   xmlns:inkscape="http://www.inkscape.org/namespaces/inkscape"
   xmlns:sodipodi="http://sodipodi.sourceforge.net/DTD/sodipodi-0.dtd"
   xmlns="http://www.w3.org/2000/svg"
   xmlns:svg="http://www.w3.org/2000/svg">
  <defs
     id="defs1686" />
  <sodipodi:namedview
     id="namedview1684"
     pagecolor="#ffffff"
     bordercolor="#000000"
     borderopacity="0.25"
     inkscape:showpageshadow="2"
     inkscape:pageopacity="0.0"
     inkscape:pagecheckerboard="0"
     inkscape:deskcolor="#d1d1d1"
     showgrid="false"
     inkscape:zoom="4.235"
     inkscape:cx="80.047226"
     inkscape:cy="155.72609"
     inkscape:window-width="2048"
     inkscape:window-height="1011"
     inkscape:window-x="0"
     inkscape:window-y="0"
     inkscape:window-maximized="1"
     inkscape:current-layer="svg1682" />
  <!-- X Group: Centers X (width 152) in 160 width. Translate X=4. -->
  <g
     transform="translate(4, 0)"
     id="g1654">
    <path
       fill="#FF4D4D"
       d="m.04.01h52.34c31.04,38.33,36.54,45.13,98.9,122.13-7.72-.03-38.17.03-52.28-.01C49.48,61.02,65.33,80.59.04.01Z"
       id="path1648" />
    <path
       fill="#FF4D4D"
       d="m98.89.01C106.5-.01,103.15.01,151.19.01c-21.7,26.69-22.26,27.41-45.31,55.88-11.89-14.9-12.03-14.78-26.19-32.26C91.2,9.59,86.44,15.34,98.89.01Z"
       id="path1650" />
    <path
       fill="#FF4D4D"
       d="m45.37,66.09c10.48,13.28,14.04,17.1,26.32,32.42-7,8.32-8.34,9.98-19.38,23.61H0c21.52-26.28,19.48-24.05,45.37-56.03Z"
       id="path1652" />
  </g>
  <!-- SAFE Group: Scaled 0.43 to match X width (152). 
       Original Starts 157.23. Shift to 0 (-157.23). 
       Y Position 142 (below X). 
       Center adjustment: Target 80. Scaled Center ~75. Shift 5.
       Transform: translate(5, 142) scale(0.43) translate(-157.23, 0) -->
  <g
     transform="matrix(0.43,0,0,0.43,-62.6089,120)"
     id="g1680">
    <path
       fill="#ffffff"
       d="m 265.6,21.3 c 6.84,0.1 14.73,-0.06 15.18,0 v 69.97 c -4.9,4.9 -3.97,3.97 -10.18,10.18 -4.37,-0.1 -17.59,-0.14 -21.96,0 0,-35.52 0,-37.09 0,-63.2 7.79,-7.79 8.73,-8.62 16.95,-16.95 z"
       id="path1656" />
    <path
       fill="#ffffff"
       d="m 350.75,21.3 h 19.91 c -0.13,15.57 0,54.56 0,80.15 -6.99,0.04 -12.1,-0.24 -19.09,0 -5.82,-5.82 -6.37,-6.51 -12.97,-12.97 0,-7.8 -0.02,-51.62 0,-55.04 q 6.23,-6.23 12.14,-12.14 z"
       id="path1658" />
    <path
       fill="#ffffff"
       d="m 375.43,21.3 h 33.84 l 8.77,8.77 c 0,1.85 0,4.69 0,8.18 -18.35,0 -18.99,0.02 -42.61,0 0.04,-5.35 0.07,-11.59 0,-16.95 z"
       id="path1660" />
    <path
       fill="#ffffff"
       d="m 446.33,21.3 h 14.64 v 80.15 H 446.4 c -8.49,-8.7 -8.65,-8.87 -17.06,-17.28 V 38.25 c 9.19,-9 9.71,-9.66 17,-16.95 z"
       id="path1662" />
    <path
       fill="#ffffff"
       d="m 375.43,53.35 c 22.34,0 28.39,0.15 42.61,0 V 69.8 h -42.61 z"
       id="path1664" />
    <path
       fill="#ffffff"
       d="m 465.41,53.35 h 42.04 V 69.8 c -17.04,0.01 -19.79,0 -42.09,-0.13 0.05,-10.32 0.05,-10.77 0.05,-16.32 z"
       id="path1666" />
    <path
       fill="#ffffff"
       d="m 174.16,21.3 h 15.85 c 0,9.64 -0.07,11.17 -0.02,15.14 0,7.17 0.02,7.61 0.02,16.91 h 31.37 c 2.07,2.12 12.2,12.34 16.43,16.43 v 15.43 c -5.23,5.25 -15.12,15.1 -16.38,16.24 -6.53,0 -10.8,0 -16.09,0 0,-4.56 0,-29.99 0,-31.65 H 173.7 c -3.19,-3.19 -5.44,-5.48 -8.55,-8.53 -2.53,-2.6 -5.48,-5.54 -7.89,-7.92 v -15.1 c 5.32,-5.3 13.58,-13.61 16.92,-16.95 z"
       id="path1668" />
    <path
       fill="#ffffff"
       d="m 194.83,21.3 c 17.6,0.09 29.27,-0.18 34.06,0 5.44,5.44 2.42,2.42 8.91,8.91 v 8.03 h -42.98 c 0,-6 0,-12.65 0,-16.95 z"
       id="path1670" />
    <path
       fill="#ffffff"
       d="m 157.23,85.21 h 43.4 v 16.24 h -34.58 c -5.16,-5.16 -5.45,-5.38 -8.82,-8.82 0.02,-3.5 0.02,-4.81 0,-7.42 z"
       id="path1672" />
    <path
       fill="#ffffff"
       d="m 465.41,84.05 h 42.04 v 7.62 c -4.23,4.23 -4.41,4.41 -9.78,9.78 h -32.26 z"
       id="path1674" />
    <path
       fill="#ffffff"
       d="m 465.41,38.71 c 15.9,0 23.62,0 42.04,0 0,-3.52 0,-3.76 0,-7.62 -4.23,-4.23 -4.41,-4.41 -9.78,-9.78 -16.55,0 -17.58,0 -32.26,0 0,7.98 0,8.72 0,17.4 z"
       id="path1676" />
    <path
       fill="#ffffff"
       d="m 327.8,38.26 c -7.79,-7.79 -8.73,-8.62 -16.95,-16.95 -6.84,0.1 -14.73,-0.06 -15.18,0 H 285.3 v 17 l 10.37,0.04 V 69.79 H 285.3 V 85.2 h 10.37 v 6.07 c 4.9,4.9 3.97,3.97 10.18,10.18 4.37,-0.1 17.59,-0.14 21.96,0 0,-35.52 0,-37.09 0,-63.2 z"
       id="path1678" />
  </g>
</svg>
